<svg width="1204" height="1095" viewBox="0 0 1204 1095" fill="none" xmlns="http://www.w3.org/2000/svg">
<g filter="url(#filter0_d_602_53)">
<path d="M1197.53 1086.3C1193.62 1086.48 1189.72 1086.8 1185.81 1086.8C1106.07 1086.83 1026.34 1086.68 946.603 1087C937.296 1087.04 931.065 1084.18 924.995 1077.09C823.013 958.116 720.79 839.356 618.608 720.543C613.981 715.167 609.301 709.83 603.471 703.117C599.42 707.53 595.837 711.208 592.507 715.1C496.743 827.092 400.992 939.098 305.241 1051.1C297.726 1059.9 289.824 1068.42 282.817 1077.6C277.428 1084.66 271.171 1087.04 262.306 1086.99C191.92 1086.65 121.534 1086.8 51.148 1086.8C37.3623 1086.8 23.59 1086.8 9.45663 1086.8C8.37357 1080.22 13.2006 1077.49 16.1155 1074.08C74.8685 1005.42 133.728 936.838 192.562 868.244C281.547 764.516 370.519 660.775 459.491 557.034C462.633 553.37 465.641 549.598 469.318 545.118C314.721 364.304 160.431 183.784 4.45581 1.2976C10.9676 0.816144 14.7249 0.307937 18.4956 0.294564C98.6825 0.254442 178.87 0.414928 259.043 0.0538345C268.537 0.0137129 274.487 3.39729 280.437 10.3517C384.465 132.268 488.693 253.996 592.908 375.752C596.024 379.39 599.326 382.853 603.164 387.079C607.028 382.813 610.331 379.336 613.446 375.698C717.14 254.678 820.914 133.712 924.313 12.438C931.948 3.50429 939.663 -0.079904 951.47 0.000339094C1029.87 0.508545 1108.27 0.267816 1186.68 0.267816C1191.42 0.267816 1196.15 0.267816 1204.01 0.267816C1191.42 17.2793 1179.02 30.3723 1167.47 44.0939C1155.71 58.0562 1143.71 71.8045 1131.82 85.6464C1119.93 99.4884 1108.03 113.344 1096.15 127.186C1083.98 141.375 1071.81 155.578 1059.64 169.768C1047.76 183.623 1035.84 197.452 1023.96 211.294C1012.07 225.136 1000.18 238.991 988.294 252.846C976.407 266.702 964.52 280.543 952.633 294.399C940.746 308.254 928.859 322.096 916.972 335.951C905.085 349.807 893.212 363.662 881.325 377.504C869.143 391.693 856.962 405.87 844.781 420.059C832.894 433.901 820.994 447.743 809.107 461.599C797.22 475.454 785.346 489.309 773.459 503.164C761.612 516.966 749.752 530.768 737.237 545.359C891.62 725.21 1045.43 904.393 1199.24 1083.58C1198.68 1084.49 1198.13 1085.39 1197.57 1086.29L1197.53 1086.3Z" fill="#2343F2"/>
<path d="M304.861 1050.78L305.241 1051.1L304.86 1050.78C302.605 1053.42 300.311 1056.04 298.015 1058.66C292.677 1064.76 287.326 1070.87 282.42 1077.29C279.768 1080.77 276.92 1083.07 273.664 1084.5C270.402 1085.94 266.697 1086.51 262.309 1086.49C208.393 1086.23 154.477 1086.26 100.564 1086.28C84.0915 1086.29 67.6196 1086.3 51.148 1086.3H51.0672H50.9864H50.9057H50.8249H50.7441H50.6633H50.5826H50.5018H50.421H50.3402H50.2595H50.1787H50.0979H50.0171H49.9364H49.8556H49.7748H49.6941H49.6133H49.5325H49.4517H49.371H49.2902H49.2094H49.1286H49.0479H48.9671H48.8863H48.8055H48.7248H48.644H48.5632H48.4825H48.4017H48.3209H48.2401H48.1594H48.0786H47.9978H47.917H47.8362H47.7555H47.6747H47.5939H47.5131H47.4324H47.3516H47.2708H47.19H47.1092H47.0285H46.9477H46.8669H46.7861H46.7053H46.6245H46.5438H46.463H46.3822H46.3014H46.2206H46.1398H46.059H45.9782H45.8974H45.8167H45.7359H45.6551H45.5743H45.4935H45.4127H45.3319H45.2511H45.1703H45.0895H45.0087H44.9279H44.8471H44.7663H44.6855H44.6047H44.5239H44.4431H44.3623H44.2815H44.2006H44.1198H44.039H43.9582H43.8774H43.7966H43.7158H43.6349H43.5541H43.4733H43.3925H43.3116H43.2308H43.15H43.0692H42.9883H42.9075H42.8267H42.7458H42.665H42.5842H42.5033H42.4225H42.3417H42.2608H42.18H42.0991H42.0183H41.9374H41.8566H41.7757H41.6949H41.614H41.5332H41.4523H41.3714H41.2906H41.2097H41.1288H41.048H40.9671H40.8862H40.8054H40.7245H40.6436H40.5627H40.4819H40.401H40.3201H40.2392H40.1583H40.0774H39.9965H39.9156H39.8348H39.7539H39.673H39.5921H39.5111H39.4302H39.3493H39.2684H39.1875H39.1066H39.0257H38.9448H38.8638H38.7829H38.702H38.6211H38.5401H38.4592H38.3783H38.2973H38.2164H38.1354H38.0545H37.9736H37.8926H37.8117H37.7307H37.6497H37.5688H37.4878H37.4069H37.3259H37.2449H37.164H37.083H37.002H36.921H36.84H36.7591H36.6781H36.5971H36.5161H36.4351H36.3541H36.2731H36.1921H36.1111H36.0301H35.9491H35.868H35.787H35.706H35.625H35.5439H35.4629H35.3819H35.3009H35.2198H35.1388H35.0577H34.9767H34.8956H34.8146H34.7335H34.6525H34.5714H34.4903H34.4093H34.3282H34.2471H34.166H34.085H34.0039H33.9228H33.8417H33.7606H33.6795H33.5984H33.5173H33.4362H33.3551H33.274H33.1928H33.1117H33.0306H32.9495H32.8683H32.7872H32.7061H32.6249H32.5438H32.4626H32.3815H32.3003H32.2191H32.138H32.0568H31.9756H31.8945H31.8133H31.7321H31.6509H31.5697H31.4885H31.4073H31.3261H31.2449H31.1637H31.0825H31.0013H30.9201H30.8389H30.7576H30.6764H30.5952H30.5139H30.4327H30.3514H30.2702H30.1889H30.1077H30.0264H29.9451H29.8639H29.7826H29.7013H29.62H29.5387H29.4574H29.3761H29.2948H29.2135H29.1322H29.0509H28.9696H28.8883H28.8069H28.7256H28.6443H28.5629H28.4816H28.4002H28.3189H28.2375H28.1562H28.0748H27.9934H27.9121H27.8307H27.7493H27.6679H27.5865H27.5051H27.4237H27.3423H27.2609H27.1795H27.0981H27.0166H26.9352H26.8538H26.7723H26.6909H26.6094H26.528H26.4465H26.3651H26.2836H26.2021H26.1207H26.0392H25.9577H25.8762H25.7947H25.7132H25.6317H25.5502H25.4687H25.3871H25.3056H25.2241H25.1425H25.061H24.9795H24.8979H24.8163H24.7348H24.6532H24.5716H24.4901H24.4085H24.3269H24.2453H24.1637H24.0821H24.0005H23.9189H23.8372H23.7556H23.674H23.5924H23.5107H23.4291H23.3474H23.2658H23.1841H23.1024H23.0208H22.9391H22.8574H22.7757H22.694H22.6123H22.5306H22.4489H22.3672H22.2854H22.2037H22.122H22.0402H21.9585H21.8767H21.795H21.7132H21.6314H21.5497H21.4679H21.3861H21.3043H21.2225H21.1407H21.0589H20.9771H20.8952H20.8134H20.7316H20.6497H20.5679H20.486H20.4042H20.3223H20.2404H20.1586H20.0767H19.9948H19.9129H19.831H19.7491H19.6672H19.5853H19.5033H19.4214H19.3395H19.2575H19.1756H19.0936H19.0116H18.9297H18.8477H18.7657H18.6837H18.6017H18.5197H18.4377H18.3557H18.2737H18.1917H18.1096H18.0276H17.9455H17.8635H17.7814H17.6994H17.6173H17.5352H17.4531H17.371H17.2889H17.2068H17.1247H17.0426H16.9605H16.8783H16.7962H16.714H16.6319H16.5497H16.4676H16.3854H16.3032H16.221H16.1388H16.0566H15.9744H15.8922H15.81H15.7277H15.6455H15.5633H15.481H15.3988H15.3165H15.2342H15.1519H15.0697H14.9874H14.9051H14.8228H14.7404H14.6581H14.5758H14.4935H14.4111H14.3288H14.2464H14.164H14.0817H13.9993H13.9169H13.8345H13.7521H13.6697H13.5873H13.5049H13.4224H13.34H13.2575H13.1751H13.0926H13.0102H12.9277H12.8452H12.7627H12.6802H12.5977H12.5152H12.4327H12.3501H12.2676H12.185H12.1025H12.0199H11.9374H11.8548H11.7722H11.6896H11.607H11.5244H11.4418H11.3592H11.2765H11.1939H11.1113H11.0286H10.9459H10.8633H10.7806H10.6979H10.6152H10.5325H10.4498H10.3671H10.2843H10.2016H10.1189H10.0361H9.95336H9.8886C9.51521 1083.39 10.3794 1081.31 11.688 1079.55C12.3817 1078.62 13.2012 1077.77 14.045 1076.94C14.1793 1076.8 14.3145 1076.67 14.45 1076.54C15.1566 1075.84 15.8695 1075.14 16.4956 1074.41C64.7629 1018 113.103 961.645 161.44 905.293C171.941 893.052 182.441 880.811 192.941 868.569C281.848 764.933 370.742 661.283 459.636 557.633L459.87 557.36C462.099 554.76 464.263 552.104 466.641 549.186C467.619 547.985 468.634 546.74 469.705 545.435L469.971 545.112L469.698 544.793C326.548 377.367 183.661 210.193 39.4555 41.4768C28.1374 28.2349 16.8112 14.9835 5.47615 1.72182C7.37928 1.57453 9.03367 1.42784 10.5202 1.29603C13.6781 1.01602 16.0785 0.803183 18.4966 0.794563C40.7698 0.783419 63.0433 0.787753 85.3168 0.792087C143.229 0.803356 201.141 0.814625 259.045 0.553829C263.729 0.534036 267.51 1.35811 270.845 3.02697C274.184 4.69766 277.109 7.23086 280.057 10.6768C374.574 121.447 469.257 232.062 563.945 342.683C573.473 353.814 583 364.946 592.528 376.077L592.908 375.752L592.528 376.077C594.638 378.54 596.836 380.927 599.221 383.517C600.365 384.759 601.553 386.049 602.794 387.416L603.164 387.824L603.534 387.415C604.795 386.024 605.998 384.713 607.156 383.453C609.537 380.86 611.726 378.476 613.826 376.024C630.928 356.065 648.031 336.107 665.135 316.149C751.739 215.095 838.346 114.036 924.693 12.7629C928.477 8.33479 932.26 5.25795 936.536 3.29328C940.812 1.32872 945.616 0.460563 951.466 0.500328L951.47 0.000339094L951.467 0.500329C1010.79 0.884928 1070.13 0.840615 1129.47 0.796302C1148.54 0.782059 1167.61 0.767816 1186.68 0.767816H1186.71H1186.74H1186.77H1186.79H1186.82H1186.85H1186.88H1186.9H1186.93H1186.96H1186.99H1187.02H1187.04H1187.07H1187.1H1187.13H1187.15H1187.18H1187.21H1187.24H1187.26H1187.29H1187.32H1187.35H1187.38H1187.4H1187.43H1187.46H1187.49H1187.51H1187.54H1187.57H1187.6H1187.63H1187.65H1187.68H1187.71H1187.74H1187.77H1187.79H1187.82H1187.85H1187.88H1187.9H1187.93H1187.96H1187.99H1188.02H1188.04H1188.07H1188.1H1188.13H1188.16H1188.18H1188.21H1188.24H1188.27H1188.3H1188.32H1188.35H1188.38H1188.41H1188.44H1188.46H1188.49H1188.52H1188.55H1188.58H1188.6H1188.63H1188.66H1188.69H1188.72H1188.74H1188.77H1188.8H1188.83H1188.86H1188.88H1188.91H1188.94H1188.97H1189H1189.03H1189.05H1189.08H1189.11H1189.14H1189.17H1189.2H1189.22H1189.25H1189.28H1189.31H1189.34H1189.37H1189.39H1189.42H1189.45H1189.48H1189.51H1189.54H1189.56H1189.59H1189.62H1189.65H1189.68H1189.71H1189.74H1189.76H1189.79H1189.82H1189.85H1189.88H1189.91H1189.94H1189.96H1189.99H1190.02H1190.05H1190.08H1190.11H1190.14H1190.17H1190.19H1190.22H1190.25H1190.28H1190.31H1190.34H1190.37H1190.4H1190.43H1190.45H1190.48H1190.51H1190.54H1190.57H1190.6H1190.63H1190.66H1190.69H1190.72H1190.75H1190.77H1190.8H1190.83H1190.86H1190.89H1190.92H1190.95H1190.98H1191.01H1191.04H1191.07H1191.1H1191.13H1191.16H1191.19H1191.22H1191.24H1191.27H1191.3H1191.33H1191.36H1191.39H1191.42H1191.45H1191.48H1191.51H1191.54H1191.57H1191.6H1191.63H1191.66H1191.69H1191.72H1191.75H1191.78H1191.81H1191.84H1191.87H1191.9H1191.93H1191.96H1191.99H1192.02H1192.05H1192.08H1192.11H1192.14H1192.17H1192.2H1192.23H1192.26H1192.29H1192.32H1192.35H1192.39H1192.42H1192.45H1192.48H1192.51H1192.54H1192.57H1192.6H1192.63H1192.66H1192.69H1192.72H1192.75H1192.78H1192.82H1192.85H1192.88H1192.91H1192.94H1192.97H1193H1193.03H1193.06H1193.09H1193.13H1193.16H1193.19H1193.22H1193.25H1193.28H1193.31H1193.34H1193.38H1193.41H1193.44H1193.47H1193.5H1193.53H1193.57H1193.6H1193.63H1193.66H1193.69H1193.72H1193.76H1193.79H1193.82H1193.85H1193.88H1193.92H1193.95H1193.98H1194.01H1194.04H1194.08H1194.11H1194.14H1194.17H1194.21H1194.24H1194.27H1194.3H1194.34H1194.37H1194.4H1194.43H1194.47H1194.5H1194.53H1194.56H1194.6H1194.63H1194.66H1194.7H1194.73H1194.76H1194.79H1194.83H1194.86H1194.89H1194.93H1194.96H1194.99H1195.03H1195.06H1195.09H1195.13H1195.16H1195.19H1195.23H1195.26H1195.29H1195.33H1195.36H1195.39H1195.43H1195.46H1195.5H1195.53H1195.56H1195.6H1195.63H1195.67H1195.7H1195.73H1195.77H1195.8H1195.84H1195.87H1195.91H1195.94H1195.97H1196.01H1196.04H1196.08H1196.11H1196.15H1196.18H1196.22H1196.25H1196.29H1196.32H1196.36H1196.39H1196.43H1196.46H1196.5H1196.53H1196.57H1196.6H1196.64H1196.67H1196.71H1196.74H1196.78H1196.81H1196.85H1196.89H1196.92H1196.96H1196.99H1197.03H1197.06H1197.1H1197.14H1197.17H1197.21H1197.24H1197.28H1197.32H1197.35H1197.39H1197.43H1197.46H1197.5H1197.53H1197.57H1197.61H1197.64H1197.68H1197.72H1197.75H1197.79H1197.83H1197.87H1197.9H1197.94H1197.98H1198.01H1198.05H1198.09H1198.12H1198.16H1198.2H1198.24H1198.27H1198.31H1198.35H1198.39H1198.43H1198.46H1198.5H1198.54H1198.58H1198.61H1198.65H1198.69H1198.73H1198.77H1198.81H1198.84H1198.88H1198.92H1198.96H1199H1199.04H1199.07H1199.11H1199.15H1199.19H1199.23H1199.27H1199.31H1199.35H1199.39H1199.42H1199.46H1199.5H1199.54H1199.58H1199.62H1199.66H1199.7H1199.74H1199.78H1199.82H1199.86H1199.9H1199.94H1199.98H1200.02H1200.06H1200.1H1200.14H1200.18H1200.22H1200.26H1200.3H1200.34H1200.38H1200.42H1200.46H1200.5H1200.54H1200.58H1200.62H1200.67H1200.71H1200.75H1200.79H1200.83H1200.87H1200.91H1200.95H1201H1201.04H1201.08H1201.12H1201.16H1201.2H1201.25H1201.29H1201.33H1201.37H1201.41H1201.46H1201.5H1201.54H1201.58H1201.62H1201.67H1201.71H1201.75H1201.79H1201.84H1201.88H1201.92H1201.97H1202.01H1202.05H1202.09H1202.14H1202.18H1202.22H1202.27H1202.31H1202.35H1202.4H1202.44H1202.49H1202.53H1202.57H1202.62H1202.66H1202.7H1202.75H1202.79H1202.84H1202.88H1202.93H1202.97H1203.01H1203.02C1194.44 12.279 1185.96 21.9908 1177.78 31.3736C1174.15 35.5283 1170.58 39.6185 1167.09 43.7719L1167.47 44.0939L1167.09 43.7719C1159.03 53.341 1150.86 62.8079 1142.68 72.2762C1138.93 76.6207 1135.18 80.9656 1131.44 85.3207C1126.66 90.8853 1121.88 96.4521 1117.1 102.019L1113.6 106.09C1107.66 113.015 1101.71 119.939 1095.77 126.86L1096.15 127.186L1095.77 126.86C1089.74 133.893 1083.7 140.929 1077.67 147.966L1077.51 148.151L1076.35 149.513C1070.65 156.157 1064.96 162.801 1059.26 169.442C1052.54 177.278 1045.81 185.104 1039.08 192.929C1033.91 198.941 1028.74 204.953 1023.58 210.968C1011.69 224.81 999.802 238.665 987.915 252.521C981.971 259.448 976.028 266.372 970.084 273.297C964.141 280.221 958.197 287.145 952.254 294.073C946.31 301.001 940.367 307.925 934.423 314.849C928.48 321.774 922.536 328.698 916.593 335.626C912.427 340.481 908.263 345.337 904.099 350.192C896.382 359.191 888.666 368.187 880.945 377.178L881.325 377.504L880.945 377.178C874.855 384.273 868.764 391.364 862.674 398.456C856.583 405.547 850.492 412.639 844.402 419.734C840.25 424.568 836.097 429.402 831.943 434.237C824.204 443.246 816.463 452.257 808.727 461.273C802.784 468.201 796.844 475.128 790.904 482.056C784.963 488.984 779.023 495.911 773.08 502.839C768.666 507.981 764.25 513.124 759.799 518.307C752.304 527.035 744.709 535.879 736.857 545.033L736.578 545.359L736.857 545.685C891.161 725.443 1044.89 904.534 1198.62 1083.62C1198.47 1083.87 1198.32 1084.11 1198.17 1084.36C1197.87 1084.85 1197.58 1085.33 1197.27 1085.82C1196.11 1085.87 1194.96 1085.93 1193.8 1086C1191.13 1086.15 1188.48 1086.3 1185.81 1086.3C1164.22 1086.31 1142.63 1086.3 1121.04 1086.3C1062.89 1086.28 1004.75 1086.27 946.601 1086.5C942 1086.52 938.192 1085.82 934.794 1084.26C931.396 1082.7 928.376 1080.27 925.375 1076.76L924.995 1077.09L925.375 1076.76C840.58 977.841 755.618 879.066 670.652 780.286C653.43 760.263 636.208 740.241 618.987 720.217C616.026 716.777 613.043 713.352 609.752 709.574C607.899 707.446 605.948 705.206 603.849 702.789L603.482 702.366L603.103 702.779C601.791 704.208 600.525 705.563 599.299 706.875C596.753 709.601 594.38 712.142 592.127 714.775C496.363 826.767 400.612 938.773 304.861 1050.78Z" stroke="black"/>
</g>
<defs>
<filter id="filter0_d_602_53" x="0.455811" y="-0.000976562" width="1207.56" height="1095" filterUnits="userSpaceOnUse" color-interpolation-filters="sRGB">
<feFlood flood-opacity="0" result="BackgroundImageFix"/>
<feColorMatrix in="SourceAlpha" type="matrix" values="0 0 0 0 0 0 0 0 0 0 0 0 0 0 0 0 0 0 127 0" result="hardAlpha"/>
<feOffset dy="4"/>
<feGaussianBlur stdDeviation="2"/>
<feComposite in2="hardAlpha" operator="out"/>
<feColorMatrix type="matrix" values="0 0 0 0 0 0 0 0 0 0 0 0 0 0 0 0 0 0 0.25 0"/>
<feBlend mode="normal" in2="BackgroundImageFix" result="effect1_dropShadow_602_53"/>
<feBlend mode="normal" in="SourceGraphic" in2="effect1_dropShadow_602_53" result="shape"/>
</filter>
</defs>
</svg>
