<svg width="98" height="92" viewBox="0 0 98 92" fill="none" xmlns="http://www.w3.org/2000/svg">
<path d="M81.0966 24.6658C81.0956 24.6663 81.0956 24.6663 81.0959 24.6668C65.5147 38.0105 43.1971 11.1765 27.7053 25.6061C27.6207 25.681 27.5364 25.7578 27.452 25.8353C30.4054 37.1502 30.8535 49.6827 28.7666 62.6382C28.8703 62.5522 28.9739 62.4696 29.0774 62.3878C48.0846 47.9881 63.2547 74.7668 82.3507 61.4855C82.3517 61.4849 82.3527 61.4843 82.3537 61.4838C82.4563 61.4098 82.56 61.3332 82.6629 61.2563C84.7507 48.3164 84.3032 35.7836 81.3493 24.4529C81.2659 24.5265 81.181 24.5963 81.0966 24.6658ZM75.7301 28.0386C76.2442 30.3542 76.6615 32.6889 76.981 35.0433C75.0669 35.7159 73.1112 35.9987 71.1313 35.9963C70.8218 33.6094 70.4146 31.2307 69.9121 28.8609C71.8982 28.8985 73.8441 28.6555 75.7301 28.0386ZM65.8639 42.5859C65.7333 40.1633 65.5028 37.7382 65.175 35.3116C67.1682 35.765 69.1415 36.0484 71.09 36.0556C71.4019 38.4619 71.6149 40.8764 71.731 43.2946C69.7868 43.3017 67.8308 43.0297 65.8639 42.5859ZM53.7763 38.6522C53.572 36.2213 53.2687 33.7826 52.8689 31.3414C54.8984 32.0363 56.9275 32.7863 58.9492 33.477C59.3111 35.9153 59.5759 38.3521 59.7415 40.7786C57.7576 40.0942 55.7675 39.3491 53.7763 38.6522ZM41.7111 35.9121C41.457 33.4972 41.1053 31.0871 40.6561 28.6925C42.6084 28.7169 44.5961 29.0148 46.6033 29.4809C47.0378 31.9068 47.3731 34.3383 47.6113 36.7664C45.6308 36.2849 43.6594 35.9642 41.7111 35.9121ZM42.125 43.1067C40.1469 43.0504 38.1779 43.2686 36.2173 43.877C36.1703 41.4925 36.0317 39.1187 35.7967 36.7612C37.7277 36.1491 39.686 35.9217 41.6678 35.9705C41.9153 38.345 42.0676 40.7263 42.125 43.1067ZM63.8476 28.0224C64.3675 30.427 64.792 32.8333 65.1173 35.2405C63.0915 34.7758 61.0456 34.1359 58.99 33.434C58.6302 31.0146 58.1734 28.5929 57.6202 26.1713C59.7139 26.8813 61.7938 27.537 63.8476 28.0224ZM51.3199 24.006C51.9127 26.4208 52.4088 28.8433 52.8077 31.2643C50.7443 30.5582 48.6853 29.9084 46.6435 29.4322C46.2108 27.0268 45.6832 24.6252 45.0592 22.2398C47.1257 22.6823 49.22 23.3109 51.3199 24.006ZM38.9682 21.5699C39.6071 23.8999 40.1495 26.2588 40.5967 28.6324C38.6116 28.6116 36.6657 28.872 34.7677 29.5146C34.3348 27.1842 33.8068 24.8806 33.1828 22.6204C35.0493 21.921 36.9825 21.6003 38.9682 21.5699ZM29.2218 32.7345C31.0134 31.2489 32.8473 30.231 34.7315 29.5877C35.1649 31.9398 35.5008 34.3202 35.7418 36.7172C33.827 37.3306 31.9419 38.3213 30.0734 39.7977C29.8874 37.4091 29.6033 35.0511 29.2218 32.7345ZM30.3458 47.05C32.2882 45.5543 34.2236 44.5614 36.1688 43.9518C36.2151 46.3756 36.1609 48.8097 36.0099 51.2502C34.0344 51.8826 32.0492 52.9063 30.0323 54.4564C30.233 51.9651 30.338 49.4949 30.3458 47.05ZM35.314 58.5775C35.6572 56.1418 35.9051 53.715 36.0562 51.2945C38.0474 50.6637 40.0269 50.4301 42.0014 50.4732C41.8608 52.8655 41.6249 55.2506 41.2919 57.6308C39.3226 57.6223 37.3344 57.8951 35.314 58.5775ZM52.9027 60.1392C50.9933 59.462 49.0758 58.8404 47.142 58.3855C47.4953 56.0264 47.7501 53.6498 47.9058 51.2581C45.9621 50.7815 44.0098 50.4625 42.0522 50.415C42.1924 48.0035 42.2331 45.5865 42.1754 43.1674C44.1377 43.2275 46.1075 43.5571 48.0792 44.0464C48.039 41.6506 47.9013 39.2469 47.6671 36.8386C49.6823 37.3302 51.7066 37.9872 53.7304 38.6954C53.9322 41.1057 54.0357 43.5091 54.0432 45.8983C52.0566 45.1953 50.0667 44.5399 48.0792 44.0464C48.1205 46.4616 48.0628 48.8676 47.9058 51.2581C49.8681 51.7394 51.8218 52.383 53.7691 53.0771C53.5794 55.4516 53.2916 57.807 52.9027 60.1392ZM64.3405 64.0503C62.4197 63.5632 60.5161 62.9228 58.6147 62.2364C59.0411 59.9193 59.3702 57.5728 59.5985 55.2048C57.6583 54.5173 55.7175 53.7719 53.7693 53.0763C53.9595 50.7015 54.0503 48.3064 54.0434 45.8975C56.0306 46.6014 58.0133 47.3534 59.99 48.0439C60.0226 45.6604 59.9565 43.2615 59.7939 40.8554C61.8099 41.5501 63.8188 42.1805 65.8187 42.634C65.946 45.0357 65.9795 47.4327 65.9144 49.819C63.9432 49.3629 61.9681 48.7344 59.9913 48.0439C59.9913 48.0439 59.9913 48.0438 59.99 48.0439C59.9583 50.4484 59.8284 52.8373 59.5982 55.2043C59.5995 55.2043 59.5995 55.2043 59.5995 55.2043C61.539 55.8929 63.4782 56.5254 65.4236 56.9936C65.162 59.3688 64.7997 61.7251 64.3405 64.0503ZM76.1746 64.2318C74.1336 64.8216 72.1342 65.0159 70.1648 64.9458C70.6402 62.5825 71.0171 60.1936 71.2935 57.7918C69.3237 57.7661 67.3702 57.4626 65.4237 56.9949C65.6856 54.6202 65.8502 52.2254 65.9139 49.8193C67.8871 50.2741 69.8573 50.5567 71.83 50.5539C71.9105 48.1547 71.8938 45.7521 71.7808 43.3542C73.758 43.3428 75.722 43.0418 77.6677 42.3416C77.7939 44.7345 77.8217 47.1448 77.7549 49.5641C75.7784 50.2608 73.8035 50.55 71.8311 50.5533C71.8301 50.5539 71.8311 50.5533 71.83 50.5539C71.7493 52.9733 71.5706 55.3889 71.2932 57.7913C71.2932 57.7913 71.2932 57.7913 71.2935 57.7918C73.2627 57.8165 75.2521 57.5617 77.2593 56.9043C76.9974 59.3533 76.6354 61.8005 76.1746 64.2318ZM83.3307 53.5764C81.295 55.1809 79.2686 56.2457 77.2611 56.9039C77.5245 54.4541 77.6887 52.0053 77.7567 49.5638C79.7306 48.8694 81.7068 47.7673 83.6648 46.1421C83.6507 48.5946 83.5391 51.0766 83.3307 53.5764ZM83.4173 38.8821C81.5511 40.4691 79.6431 41.5653 77.714 42.2653C77.5864 39.8537 77.3606 37.4587 77.0388 35.0842C78.9353 34.4124 80.7955 33.3552 82.5882 31.8334C82.9624 34.1468 83.2375 36.496 83.4173 38.8821Z" fill="#2850FF"/>
<path d="M23.1356 25.458L25.1523 81.9801L27.6851 81.8897L25.6684 25.3677L23.1356 25.458Z" fill="#2850FF"/>
</svg>
